<svg xmlns="http://www.w3.org/2000/svg" viewBox="0 0 24 24" width="24" height="24">
    <style>{ white-space:pre } { fill: none;stroke: #ffffff } { fill: #ffffff }</style>
    <path id="Layer" class="shp0"
          d="M12 23.5C5.64 23.5 0.5 18.36 0.5 12C0.5 5.64 5.64 0.5 12 0.5C18.36 0.5 23.5 5.64 23.5 12C23.5 18.36 18.36 23.5 12 23.5Z"/>
    <path id="Layer" class="shp1"
          d="M14.2 15.66C14.2 15.16 14.04 14.75 13.72 14.43C13.41 14.1 12.88 13.81 12.14 13.55C11.4 13.29 10.83 13.04 10.42 12.82C9.05 12.09 8.37 11 8.37 9.57C8.37 8.6 8.67 7.8 9.26 7.17C9.85 6.54 10.65 6.17 11.67 6.05L11.67 4.14L13.07 4.14L13.07 6.07C14.09 6.22 14.88 6.65 15.44 7.37C15.99 8.09 16.27 9.02 16.27 10.17L14.15 10.17C14.15 9.43 13.98 8.85 13.64 8.43C13.32 8 12.87 7.79 12.3 7.79C11.74 7.79 11.3 7.94 10.98 8.24C10.67 8.55 10.51 8.98 10.51 9.55C10.51 10.06 10.66 10.47 10.97 10.78C11.29 11.09 11.82 11.38 12.57 11.65C13.32 11.93 13.91 12.18 14.34 12.42C14.77 12.65 15.13 12.92 15.42 13.23C15.71 13.52 15.94 13.87 16.1 14.26C16.25 14.66 16.33 15.12 16.33 15.64C16.33 16.63 16.03 17.44 15.42 18.05C14.82 18.67 13.97 19.03 12.89 19.14L12.89 20.85L11.49 20.85L11.49 19.15C10.33 19.02 9.44 18.6 8.81 17.9C8.19 17.2 7.88 16.27 7.88 15.11L10.01 15.11C10.01 15.84 10.2 16.42 10.57 16.82C10.94 17.22 11.47 17.43 12.15 17.43C12.82 17.43 13.33 17.27 13.67 16.94C14.02 16.62 14.2 16.19 14.2 15.66Z"/>
</svg>

